<svg xmlns="http://www.w3.org/2000/svg" viewBox="0 0 305.04 52.71"><defs><style>.cls-1{fill:#231f20;}</style></defs><g id="Layer_2" data-name="Layer 2"><g id="bird3.svg"><path class="cls-1" d="M4.67,51.49A94.15,94.15,0,0,1,60.45,7.94a82.58,82.58,0,0,1,67.87,11.22,76.61,76.61,0,0,1,26.06,29.4c.9,1.81,3.33,1.42,4.32,0a96.28,96.28,0,0,1,48.71-36.1,95.59,95.59,0,0,1,93.3,20.14c2.37,2.17,5.92-1.36,3.53-3.53A101.91,101.91,0,0,0,242.65,3a99.52,99.52,0,0,0-62.08,17.16A101.17,101.17,0,0,0,154.38,46h4.32C147.54,23.56,125.38,7.52,101.09,2c-25-5.64-51.32.7-72.07,15.49A99.93,99.93,0,0,0,.35,49c-1.6,2.79,2.71,5.32,4.32,2.52Z"/></g></g></svg>